<?xml version="1.0" encoding="UTF-8"?><svg id="Layer_1" xmlns="http://www.w3.org/2000/svg" width="668" height="242" viewBox="0 0 668 242"><defs><style>.cls-1{fill:#00aeef;}.cls-2{fill:#f4ed86;}.cls-3{fill:#fff;}.cls-4{fill:#f37779;}.cls-5{fill:#29b264;}</style></defs><g><g><path class="cls-3" d="M56.3,92.79c2.04,1.64,3.8,3.86,5.38,6.45-1.41-3.04-3-5.71-4.84-7.64-.18,.39-.36,.79-.54,1.19Z"/><path class="cls-3" d="M57.98,119.82c-2.11-1.82-4.38-3.32-6.94-4.17-.02,.45-.03,.9-.04,1.36,2.57,.51,4.87,1.53,6.98,2.82Z"/><path class="cls-3" d="M51.07,121.15c2.68,.29,5.07,1.09,7.25,2.14-2.21-1.58-4.6-2.87-7.3-3.51,.01,.46,.03,.91,.05,1.37Z"/><path class="cls-3" d="M57.93,116.32c-2.01-2.04-4.17-3.75-6.6-4.8-.05,.45-.09,.9-.12,1.34,2.47,.72,4.69,1.95,6.72,3.46Z"/><path class="cls-3" d="M51.89,107.41c-.08,.44-.15,.88-.21,1.33,2.39,.92,4.53,2.36,6.49,4.1-1.91-2.26-3.96-4.17-6.28-5.42Z"/><path class="cls-3" d="M58.32,147.46c.22,.42,.45,.83,.68,1.24,3.17-2.03,5.37-3.7,7.27-5.26l-7.95,4.02Z"/><path class="cls-3" d="M68.76,148.64c-1.54,1.8-3.43,3.74-6.09,5.84,.27,.38,.55,.76,.84,1.14,2.48-2.42,4.03-4.73,5.25-6.97Z"/><path class="cls-3" d="M65.19,157.75c.3,.36,.6,.72,.9,1.07,2.09-2.5,3.31-4.98,4.2-7.42-1.23,2.02-2.81,4.14-5.1,6.34Z"/><path class="cls-3" d="M67.46,145.96c-1.85,1.49-4.05,3.14-7.08,5.07,.25,.4,.5,.8,.76,1.2,2.86-2.27,4.74-4.32,6.32-6.27Z"/><path class="cls-3" d="M58.96,126.69c-2.32-1.34-4.82-2.39-7.7-2.79,.04,.46,.09,.92,.14,1.37,2.82,.05,5.3,.61,7.55,1.41Z"/><path class="cls-3" d="M59.87,129.97c-2.42-1.06-5.03-1.85-8.09-1.97,.07,.46,.15,.92,.23,1.37,2.97-.22,5.54,.07,7.86,.6Z"/><path class="cls-3" d="M73.97,166.51c.35,.29,.71,.58,1.07,.86,1.1-2.56,1.48-5.25,1.52-7.98-.45,2.38-1.23,4.78-2.59,7.12Z"/><path class="cls-3" d="M54.93,139.94c.17,.44,.34,.88,.51,1.32,3.36-1.29,6-2.09,8.29-2.69-2.51,.11-5.27,.42-8.8,1.37Z"/><path class="cls-3" d="M56.5,143.76c.19,.43,.39,.86,.6,1.29l7.96-4.02c-2.38,.61-5.04,1.38-8.55,2.73Z"/><path class="cls-3" d="M67.92,160.86c.32,.34,.64,.67,.97,1.01,1.72-2.54,2.64-5.12,3.22-7.69-.95,2.18-2.24,4.43-4.18,6.69Z"/><path class="cls-3" d="M70.85,163.78c.34,.31,.68,.63,1.02,.93,1.39-2.55,2.03-5.2,2.33-7.86-.69,2.29-1.71,4.63-3.35,6.93Z"/><path class="cls-3" d="M53.61,136.03c.14,.45,.27,.9,.42,1.35,3.27-.9,5.95-1.27,8.32-1.44-2.54-.34-5.31-.47-8.74,.09Z"/><path class="cls-3" d="M58.71,109.4c-1.81-2.49-3.76-4.62-5.98-6.06-.1,.43-.2,.87-.3,1.3,2.32,1.12,4.39,2.78,6.28,4.75Z"/><path class="cls-3" d="M63.24,96.23c-1.29-3.31-2.76-6.22-4.51-8.34-.21,.38-.42,.76-.62,1.15,1.98,1.84,3.65,4.32,5.13,7.19Z"/><path class="cls-3" d="M60.41,102.52c-1.54-2.84-3.25-5.32-5.2-7.09-.16,.41-.31,.82-.46,1.23,1.97,1.36,3.85,3.3,5.67,5.86Z"/><path class="cls-3" d="M60.86,84.31c-.24,.37-.47,.74-.69,1.11,1.91,2.06,3.49,4.81,4.86,7.98-1.15-3.6-2.5-6.77-4.16-9.08Z"/><path class="cls-3" d="M59.45,105.95c-1.68-2.69-3.52-5-5.62-6.61-.13,.42-.26,.85-.38,1.28,2.07,1.2,4.06,2.97,6,5.33Z"/><path class="cls-3" d="M61.02,133.06c-2.49-.73-5.21-1.22-8.46-1.02,.1,.46,.21,.91,.33,1.37,3.13-.54,5.77-.55,8.13-.34Z"/><path class="cls-3" d="M160.62,147.93c2.44-.03,4.91,.26,7.36,1.11,.22-.39,.44-.78,.66-1.18-2.61-.55-5.3-.41-8.01,.07Z"/><path class="cls-3" d="M146.11,161.13c1.65,1.67,3.5,3.69,5.7,6.47,.37-.29,.74-.58,1.11-.87-2.52-2.58-4.73-4.23-6.81-5.6Z"/><path class="cls-3" d="M136.64,167.23c-.09,2.54,.06,5.3,.95,8.63,.43-.18,.87-.37,1.29-.56-1.21-3.14-1.85-5.76-2.25-8.08Z"/><path class="cls-3" d="M144.98,172.2c.41-.24,.81-.48,1.21-.72l-4.76-7.45c.84,2.3,1.87,4.85,3.54,8.17Z"/><path class="cls-3" d="M154.99,164.98c.35-.31,.7-.62,1.04-.94-2.63-2.19-5.06-3.48-7.39-4.47,1.93,1.34,4.02,3.01,6.35,5.41Z"/><path class="cls-3" d="M141.35,174.15c.42-.21,.84-.42,1.26-.64-1.6-3.19-2.66-5.71-3.48-7.92,.36,2.47,.93,5.17,2.22,8.56Z"/><path class="cls-3" d="M79.15,161.72c-.22,2.46-.77,4.93-1.89,7.31,.37,.26,.74,.52,1.12,.78,.84-2.57,.98-5.3,.77-8.09Z"/><path class="cls-3" d="M97.91,170.94c1.16,2.82,1.91,5.57,2.01,8.2,.43,.09,.85,.19,1.28,.27-.46-2.64-1.67-5.51-3.29-8.47Z"/><path class="cls-3" d="M157.99,162.15c.33-.33,.65-.66,.97-1-2.67-1.79-5.23-2.74-7.72-3.38,2.12,1.01,4.36,2.36,6.75,4.38Z"/><path class="cls-3" d="M158.56,150.74c2.38,.2,4.81,.73,7.25,1.82,.25-.38,.5-.76,.74-1.14-2.62-.81-5.3-.91-7.98-.68Z"/><path class="cls-3" d="M160.8,159.13c.3-.35,.6-.7,.9-1.05-2.66-1.42-5.29-2.06-7.88-2.38,2.24,.72,4.57,1.76,6.99,3.43Z"/><path class="cls-3" d="M163.41,155.93c.28-.36,.55-.73,.82-1.1-2.65-1.1-5.31-1.46-7.96-1.49,2.32,.45,4.71,1.22,7.14,2.59Z"/><path class="cls-3" d="M143.72,162.57l4.75,7.44c.39-.26,.78-.53,1.16-.8-2.31-2.91-4.19-4.92-5.92-6.64Z"/><path class="cls-3" d="M87.97,167.31c.47,2.7,.58,5.37,.09,7.91,.41,.18,.82,.36,1.23,.54,.16-2.65-.39-5.5-1.33-8.45Z"/><path class="cls-3" d="M91.92,176.79c.42,.15,.84,.3,1.26,.45-.04-2.65-.82-5.52-1.99-8.48,.75,2.98,1,5.65,.73,8.04Z"/><path class="cls-3" d="M160.8,132.7c-3.15-4.86-5.88-9.06-13.86-9.99-.14-.01-.27-.03-.41-.04-6.57-.66-12.52-3.78-17.31-6.29-4.54-2.38-8.46-4.43-10.9-3.41,1.87,1.8,3.48,6.27,5.9,12.97,2.38,6.61,5.09,14.09,8.42,19.31,.07,.11,.14,.22,.21,.32,1.91,2.82,4.34,4.17,7.61,4.24,3.25,.07,7-1.07,10.97-2.27,5.8-1.76,12.24-3.72,18.46-2.16,.32-.65,.62-1.3,.91-1.97-5.05-3.06-7.67-7.08-10.02-10.71Z"/><path class="cls-3" d="M133.91,168.83c-.48,2.55-.69,5.29-.18,8.48,.44-.15,.88-.31,1.32-.47-.84-3.04-1.12-5.66-1.15-8.02Z"/><path class="cls-3" d="M81.94,163.83c0,2.54-.32,5.07-1.22,7.5,.38,.24,.77,.47,1.16,.7,.6-2.59,.51-5.36,.06-8.2Z"/><path class="cls-3" d="M84.89,165.7c.23,2.62,.13,5.21-.56,7.69,.4,.21,.8,.42,1.2,.62,.38-2.61,.05-5.42-.64-8.31Z"/><path class="cls-3" d="M130.95,170.29c-.81,2.5-1.34,5.18-1.15,8.22,.45-.12,.9-.25,1.34-.37-.51-2.92-.48-5.5-.19-7.85Z"/><path class="cls-3" d="M124.45,172.51c-1.35,2.36-2.39,4.86-2.76,7.61,.45-.06,.91-.12,1.36-.19,.02-2.7,.58-5.15,1.4-7.42Z"/><path class="cls-3" d="M127.78,171.53c-1.1,2.44-1.9,5.03-2,7.92,.45-.09,.9-.18,1.35-.28-.23-2.8,.08-5.32,.65-7.64Z"/><path class="cls-3" d="M118.93,180.41c.25-2.61,1.04-4.99,2.1-7.21-1.59,2.28-2.86,4.69-3.45,7.32,.45-.03,.9-.06,1.35-.1Z"/><path class="cls-3" d="M95.88,178.09c.42,.12,.85,.24,1.27,.36-.26-2.63-1.25-5.49-2.62-8.44,.99,3,1.44,5.67,1.35,8.08Z"/><path class="cls-3" d="M167.13,123.37c2.35,.5,5.02,1.02,8.66,1.58,.05-.46,.1-.93,.14-1.4-3.68-.18-6.4-.2-8.8-.18Z"/><path class="cls-3" d="M166.9,126.09c2.24,1.01,4.78,2.01,8.31,2.93,.08-.46,.16-.92,.23-1.39-3.56-.54-6.25-1.06-8.54-1.54Z"/><path class="cls-3" d="M172.19,96.05c-.16-.44-.33-.87-.51-1.3-3.21,1.16-5.81,1.82-8.1,2.27,2.49,.04,5.22-.13,8.6-.97Z"/><path class="cls-3" d="M160.57,101.51c-5.23-1.26-9.75-2.35-17.17,1.72-5.77,3.16-10.97,3.91-15.14,4.52-3.35,.48-6.04,.87-8.2,2.24,3.03,.11,6.53,1.94,10.42,3.98,4.82,2.52,10.28,5.38,16.32,5.99,8.29,.83,11.85-2.79,15.98-7,3.02-3.08,6.38-6.49,11.91-8.48-.14-.64-.29-1.28-.45-1.91-5.67,.86-9.88-.15-13.66-1.06Z"/><path class="cls-3" d="M173.5,99.94c-.13-.44-.27-.89-.42-1.33-3.11,.79-5.72,1.05-8.05,1.1,2.5,.45,5.21,.68,8.46,.22Z"/><path class="cls-3" d="M167.44,120.66c2.34-.02,5.07,.01,8.66,.19,.02-.47,.04-.93,.05-1.4-3.63,.2-6.32,.67-8.7,1.21Z"/><path class="cls-3" d="M176.15,116.74c0-.47-.02-.93-.04-1.4-3.44,.55-6.02,1.46-8.3,2.47,2.28-.48,4.93-.89,8.34-1.07Z"/><path class="cls-3" d="M168.8,88.57c-.22-.41-.45-.82-.68-1.23-3.13,1.93-5.37,3.44-7.34,4.82,2.22-.92,4.7-1.99,8.01-3.59Z"/><path class="cls-3" d="M174.36,133.04c.11-.45,.22-.91,.32-1.36-3.32-.86-5.85-1.8-7.99-2.72,2.04,1.45,4.39,2.86,7.67,4.09Z"/><path class="cls-3" d="M168.18,111.51c2.02-1.17,4.36-2.23,7.26-2.98-.07-.46-.14-.91-.22-1.36-2.88,1.1-5.1,2.64-7.04,4.34Z"/><path class="cls-3" d="M168.09,114.75c2.16-.86,4.67-1.64,7.84-2.12-.04-.46-.08-.92-.13-1.38-3.17,.85-5.58,2.12-7.71,3.51Z"/><path class="cls-3" d="M76.5,83.49c3.15,3.37,5.87,6.29,12.66,12.03h.01c3.07,2.61,6.42,4.22,9.68,5.45-2.84-1.63-5.79-3.72-8.48-6.69-5.97-6.6-8.98-9.22-12.46-12.26-2.33-2.04-4.92-4.3-8.72-8.09-.36,.36-.72,.73-1.07,1.1,3.92,3.67,6.27,6.19,8.38,8.45Z"/><path class="cls-3" d="M165.8,135.2c1.57,2.06,3.45,4.02,6.07,5.68,.17-.43,.33-.86,.49-1.3-2.72-1.31-4.82-2.82-6.57-4.38Z"/><path class="cls-3" d="M166.36,132.01c1.81,1.79,3.93,3.52,6.89,4.99,.14-.44,.28-.89,.41-1.33-3.02-1.11-5.34-2.38-7.3-3.66Z"/><path class="cls-3" d="M124.53,164.7c2.77-3.09,5.38-6.02,6.68-8.99,1.31-3,1.11-5.77-.65-8.69-.07-.11-.13-.22-.2-.33-3.49-5.47-6.25-13.11-8.68-19.84-1.17-3.24-2.27-6.3-3.27-8.55-1.09-2.46-1.75-3.22-2.02-3.45-.04,.04-.08,.1-.13,.17-.49,.86-.92,1.96-1.3,3.33-.01,.04-.03,.08-.04,.12l-.02,.04s-.02,.05-.03,.08l-.02,.04s-.03,.05-.04,.07l-.02,.04s-.03,.05-.05,.07l-.02,.03s-.05,.06-.08,.09h0s-.06,.06-.09,.09l-.03,.03s-.04,.03-.06,.05l-.04,.03s-.04,.03-.06,.04l-.04,.02s-.05,.02-.07,.04l-.04,.02s-.07,.03-.1,.04h-.01s-.08,.03-.12,.04h-.04s-.05,.02-.08,.02h-.05s-.05,.01-.08,.01h-.1s-.08,0-.12,0c-.02,0-.03,0-.05,0-.05,0-.11-.02-.16-.03-.05-.01-.09-.03-.13-.04-.51-.2-.85-.68-.86-1.22,0-.13,.01-.27,.05-.4,.25-.9,.42-1.72,.53-2.47,.09-.7,.06-1.08,.03-1.27-.35,.06-1.31,.38-3.5,1.94-2.01,1.43-4.52,3.5-7.18,5.69-5.53,4.56-11.79,9.72-17.58,12.65-.08,.04-.17,.09-.25,.13-1.2,.66-1.88,1.48-2.07,2.49-.81,4.32,6.35,12.29,13.28,20,7.31,8.13,14.82,16.5,16.73,23.84,.42,0,.83,.01,1.25,.01s.81,0,1.21-.01c1.17-6.33,5.68-11.38,9.74-15.92Z"/><path class="cls-3" d="M159.51,89.75c1.92-1.33,4.18-2.85,7.23-4.73-.25-.4-.5-.79-.75-1.18-2.87,2.21-4.82,4.12-6.47,5.91Z"/><path class="cls-3" d="M111.42,63.5c1.17-2.25,2.19-4.77,2.72-8.02-.19,0-.37,0-.56,0-.28,0-.55,0-.83,0-.17,3.2-.69,5.78-1.33,8.02Z"/><path class="cls-3" d="M170.61,92.26c-.19-.43-.39-.85-.59-1.27-3.23,1.56-5.73,2.65-7.89,3.55,2.41-.43,5.06-1.05,8.48-2.28Z"/><path class="cls-3" d="M131.73,90.13c-3.29,5.55-5.87,8.66-8.16,11.41-1.79,2.15-3.14,4.02-4.19,5.73,2.48-1.33,5.29-1.74,8.5-2.2,4.16-.6,8.88-1.28,14.22-4.21,7.42-4.07,8.93-8.46,10.69-13.54,1.27-3.67,2.67-7.75,6.44-12.06-.44-.47-.88-.92-1.33-1.38-4.43,3.62-8.56,4.89-12.27,6.03-5.14,1.58-9.58,2.95-13.9,10.23Z"/><path class="cls-3" d="M148.55,76.09c2.37-.88,4.81-2.07,7.37-4.1-.34-.31-.68-.62-1.03-.93-2.27,2.25-4.37,3.81-6.34,5.03Z"/><path class="cls-3" d="M145.92,74.5c2.16-1.24,4.42-2.77,6.9-5.2-.36-.29-.73-.58-1.1-.86-2.17,2.63-4.07,4.51-5.8,6.06Z"/><path class="cls-3" d="M114.63,63.09c1.49-2.1,2.81-4.46,3.61-7.44-.46-.03-.92-.06-1.38-.09-.45,2.97-1.27,5.4-2.23,7.52Z"/><path class="cls-3" d="M108.64,55.68c.16,3.42,.02,6.1-.23,8.42,.77-2.37,1.42-5.03,1.63-8.51-.47,.03-.93,.06-1.4,.09Z"/><path class="cls-3" d="M161.94,78.34c-.29-.36-.59-.71-.89-1.06-2.12,2.49-3.39,4.89-4.35,7.23,1.29-1.93,2.92-3.98,5.24-6.17Z"/><path class="cls-3" d="M79.11,65.82c-.38,.25-.76,.51-1.13,.76,2.12,1.83,4.53,3.01,7.07,3.87-2.08-1.15-4.11-2.62-5.93-4.64Z"/><path class="cls-3" d="M88.15,69c-1.92-1.36-3.8-3.06-5.52-5.34-.4,.23-.79,.46-1.19,.69,2.03,2.12,4.32,3.54,6.71,4.64Z"/><path class="cls-3" d="M158.2,87.19c1.61-1.68,3.55-3.52,6.26-5.59-.27-.38-.55-.75-.83-1.12-2.52,2.4-4.12,4.6-5.43,6.72Z"/><path class="cls-3" d="M97.42,66.33c-1.14-2.04-2.32-4.47-3.51-7.69-.44,.15-.89,.3-1.33,.46,1.55,3.15,3.19,5.35,4.84,7.24Z"/><path class="cls-3" d="M94.42,66.96c-1.47-1.82-2.96-4-4.37-6.9-.43,.18-.86,.36-1.29,.54,1.76,2.8,3.69,4.74,5.66,6.36Z"/><path class="cls-3" d="M92.39,92.47c4.07,4.5,8.77,6.77,12.91,8.78,3.11,1.5,6.03,2.92,7.99,5.06-.49-2.39-1.49-4.43-2.67-6.84-1.61-3.27-3.6-7.34-4.9-13.72h0c-1.62-7.94-7.32-9.23-14.54-10.87-5.15-1.17-10.88-2.46-15.43-6.66-.5,.38-.99,.76-1.47,1.15,3.39,4.16,5.38,6.96,7.17,9.48,2.67,3.77,4.98,7.02,10.95,13.62Z"/><path class="cls-3" d="M108.36,113.24c1.48-1.01,2.98-1.9,4.3-2.05-1.08-3.2-4.65-4.34-9.77-5.98-4.64-1.49-10.42-3.34-15.46-7.6h0c-6.8-5.75-10.13-7.95-13.98-10.49-2.59-1.71-5.46-3.61-9.74-6.86-.42,.56-.84,1.12-1.24,1.69,4.75,5.9,7.03,16.89,9.24,27.57,2.1,10.15,4.27,20.64,8.23,22.55,.93,.45,1.99,.39,3.23-.19,.08-.04,.17-.08,.25-.12,5.52-2.79,11.66-7.85,17.08-12.32,2.92-2.41,5.68-4.68,7.87-6.18Z"/><path class="cls-3" d="M104.61,171.72c1.75,3,3.04,5.91,3.55,8.69,.44,.04,.87,.07,1.31,.1-.88-2.73-2.64-5.71-4.86-8.78Z"/><path class="cls-3" d="M77.59,78.13c-1.41-1.96-3.05-4.14-5.4-7.02-.35,.31-.7,.63-1.05,.94,2.63,2.62,4.64,4.47,6.44,6.07Z"/><path class="cls-3" d="M66.3,77.05c-.31,.35-.61,.71-.91,1.08,2.96,2.25,5.2,3.82,7.21,5.17-1.67-1.75-3.58-3.7-6.3-6.24Z"/><path class="cls-3" d="M100.26,65.83c-.71-2.24-1.49-4.86-2.39-8.35-.45,.12-.91,.24-1.36,.37,1.27,3.43,2.52,5.86,3.75,7.99Z"/><path class="cls-3" d="M91.3,67.83c-1.73-1.59-3.44-3.52-5.02-6.1-.42,.2-.83,.41-1.24,.62,1.91,2.45,4.06,4.12,6.26,5.48Z"/><path class="cls-3" d="M142.52,62.56c-.41-.22-.83-.43-1.25-.63-1.35,3.37-2.05,6.01-2.56,8.4,.97-2.13,2.14-4.58,3.81-7.76Z"/><path class="cls-3" d="M146.1,64.58c-.4-.24-.8-.48-1.2-.72-1.71,3.25-2.87,5.7-3.86,7.88,1.44-1.92,3.03-4.11,5.06-7.17Z"/><path class="cls-3" d="M101.27,171.47c1.44,2.91,2.45,5.74,2.75,8.44,.43,.07,.86,.13,1.3,.18-.66-2.68-2.14-5.61-4.05-8.62Z"/><path class="cls-3" d="M138.82,60.78c-.43-.19-.85-.37-1.28-.55-.95,3.35-1.21,6.07-1.25,8.56,.53-2.27,1.27-4.84,2.54-8.01Z"/><path class="cls-3" d="M149.53,66.83c-.38-.27-.77-.53-1.15-.79-1.98,2.99-3.57,5.19-4.97,7.06,1.85-1.6,3.82-3.48,6.13-6.27Z"/><path class="cls-3" d="M102.94,65.33c-.22-2.4-.51-5.1-1.06-8.75-.46,.09-.92,.18-1.38,.28,.92,3.58,1.71,6.18,2.44,8.47Z"/><path class="cls-3" d="M133.63,67.25c.13-2.32,.48-4.93,1.37-8-.44-.16-.87-.31-1.31-.46-.56,3.24-.43,5.96-.06,8.47Z"/><path class="cls-3" d="M122.33,56.09c-.45-.06-.9-.12-1.36-.17-.69,2.74-1.75,5.02-2.98,7.01,1.76-1.93,3.31-4.12,4.34-6.84Z"/><path class="cls-3" d="M105.61,64.74c.3-2.43,.5-5.16,.33-8.79-.47,.06-.93,.12-1.39,.18,.54,3.56,.84,6.28,1.06,8.61Z"/><path class="cls-3" d="M126.39,56.8c-.44-.09-.89-.18-1.33-.26-.9,2.55-2.18,4.67-3.63,6.53,1.98-1.77,3.73-3.78,4.97-6.27Z"/><path class="cls-3" d="M117.51,69.52c-5.89,4.24-10.57,7.6-9.23,15.21,.03,.16,.06,.31,.09,.47,1.23,6.04,3.06,9.77,4.68,13.07,1.45,2.95,2.73,5.57,3.14,9.02,1.59-3.01,3.29-5.07,5.31-7.49,2.22-2.67,4.73-5.7,7.91-11.06,4.31-7.28,3.38-11.83,2.29-17.1-.78-3.81-1.65-8.05-.6-13.69-.66-.19-1.32-.37-1.99-.54-2.56,5.61-7.31,9.03-11.58,12.1Z"/></g><g><path class="cls-3" d="M224.1,105.51c-3.23,0-5.73,1.21-7.5,3.64-1.77,2.43-2.66,5.81-2.66,10.14,0,9.02,3.39,13.53,10.16,13.53,2.84,0,6.28-.71,10.32-2.13v7.19c-3.32,1.38-7.03,2.08-11.12,2.08-5.88,0-10.39-1.78-13.5-5.35-3.12-3.57-4.68-8.69-4.68-15.37,0-4.21,.77-7.89,2.3-11.06,1.53-3.16,3.73-5.59,6.6-7.28,2.87-1.69,6.23-2.53,10.09-2.53s7.88,.95,11.84,2.85l-2.77,6.97c-1.51-.72-3.04-1.35-4.57-1.88-1.53-.53-3.03-.8-4.51-.8Z"/><path class="cls-3" d="M270.92,139.41h-8.44v-18.07c0-4.46-1.66-6.7-4.98-6.7-2.36,0-4.07,.8-5.12,2.41-1.05,1.6-1.58,4.21-1.58,7.8v14.56h-8.44v-43.06h8.44v8.77c0,.68-.06,2.29-.19,4.81l-.19,2.49h.44c1.88-3.03,4.87-4.54,8.97-4.54,3.63,0,6.39,.98,8.27,2.93,1.88,1.96,2.82,4.76,2.82,8.41v20.17Z"/><path class="cls-3" d="M293.61,139.96c-4.98,0-8.87-1.37-11.68-4.12-2.8-2.75-4.21-6.64-4.21-11.68s1.3-9.19,3.89-12.02,6.18-4.25,10.75-4.25,7.78,1.25,10.21,3.74c2.43,2.49,3.65,5.93,3.65,10.32v4.1h-19.95c.09,2.4,.8,4.27,2.13,5.62s3.19,2.02,5.59,2.02c1.86,0,3.62-.19,5.29-.58,1.66-.39,3.39-1.01,5.2-1.85v6.53c-1.48,.74-3.05,1.29-4.73,1.65-1.68,.36-3.73,.54-6.14,.54Zm-1.19-26.07c-1.79,0-3.19,.57-4.21,1.7-1.01,1.13-1.6,2.74-1.74,4.83h11.84c-.04-2.08-.58-3.69-1.63-4.83-1.05-1.13-2.47-1.7-4.26-1.7Z"/><path class="cls-3" d="M325.65,139.96c-9.63,0-14.44-5.29-14.44-15.86,0-5.26,1.31-9.27,3.93-12.05,2.62-2.78,6.37-4.16,11.26-4.16,3.58,0,6.79,.7,9.63,2.1l-2.49,6.53c-1.33-.53-2.56-.97-3.71-1.31-1.14-.34-2.29-.51-3.43-.51-4.39,0-6.59,3.12-6.59,9.35s2.2,9.08,6.59,9.08c1.62,0,3.13-.22,4.51-.65s2.77-1.11,4.15-2.03v7.22c-1.37,.87-2.74,1.47-4.14,1.8-1.39,.33-3.15,.5-5.27,.5Z"/><path class="cls-3" d="M350.33,122.58l3.68-4.7,8.66-9.41h9.52l-12.29,13.42,13.03,17.52h-9.74l-8.91-12.54-3.62,2.91v9.63h-8.44v-43.06h8.44v19.2l-.44,7.03h.11Z"/><path class="cls-3" d="M385.81,139.41h-8.44v-43.06h8.44v43.06Z"/><path class="cls-3" d="M394.31,100.47c0-2.75,1.53-4.12,4.59-4.12s4.59,1.37,4.59,4.12c0,1.31-.38,2.33-1.15,3.06-.77,.73-1.91,1.09-3.45,1.09-3.06,0-4.59-1.38-4.59-4.15Zm8.8,38.93h-8.44v-30.94h8.44v30.94Z"/><path class="cls-3" d="M433.54,130.22c0,3.17-1.1,5.59-3.31,7.25-2.21,1.66-5.5,2.49-9.89,2.49-2.25,0-4.17-.15-5.76-.46-1.59-.3-3.07-.75-4.46-1.34v-6.97c1.57,.74,3.33,1.36,5.3,1.85s3.69,.75,5.19,.75c3.06,0,4.59-.89,4.59-2.66,0-.66-.2-1.2-.61-1.62-.41-.42-1.11-.89-2.1-1.41-1-.53-2.32-1.14-3.99-1.84-2.38-1-4.13-1.92-5.24-2.77-1.12-.85-1.93-1.82-2.44-2.92s-.76-2.45-.76-4.05c0-2.75,1.07-4.87,3.2-6.38,2.13-1.5,5.15-2.26,9.06-2.26s7.35,.81,10.88,2.44l-2.55,6.09c-1.55-.66-3-1.21-4.34-1.63s-2.72-.64-4.12-.64c-2.49,0-3.74,.67-3.74,2.02,0,.76,.4,1.41,1.2,1.96,.8,.55,2.56,1.37,5.27,2.46,2.42,.98,4.19,1.89,5.31,2.74,1.12,.85,1.96,1.83,2.49,2.93s.8,2.43,.8,3.96Z"/><path class="cls-3" d="M453.16,133.24c1.48,0,3.25-.32,5.31-.97v6.28c-2.1,.94-4.69,1.41-7.75,1.41-3.38,0-5.83-.85-7.38-2.56-1.54-1.71-2.31-4.27-2.31-7.68v-14.92h-4.04v-3.57l4.65-2.82,2.44-6.53h5.4v6.59h8.66v6.34h-8.66v14.92c0,1.2,.34,2.08,1.01,2.66,.67,.57,1.56,.86,2.67,.86Z"/><path class="cls-3" d="M465.4,98.95h12.59c5.74,0,9.9,.82,12.49,2.45,2.59,1.63,3.89,4.23,3.89,7.79,0,2.42-.57,4.4-1.7,5.95-1.13,1.55-2.64,2.48-4.52,2.79v.28c2.56,.57,4.41,1.64,5.55,3.21,1.13,1.57,1.7,3.65,1.7,6.25,0,3.69-1.33,6.57-4,8.63-2.67,2.07-6.29,3.1-10.86,3.1h-15.14v-40.46Zm8.58,16.02h4.98c2.32,0,4.01-.36,5.05-1.08,1.04-.72,1.56-1.91,1.56-3.57,0-1.55-.57-2.66-1.7-3.33-1.13-.67-2.93-1.01-5.38-1.01h-4.51v8.99Zm0,6.81v10.54h5.59c2.36,0,4.1-.45,5.23-1.36,1.13-.9,1.69-2.29,1.69-4.15,0-3.36-2.4-5.04-7.19-5.04h-5.31Z"/><path class="cls-3" d="M522.46,139.41l-1.63-4.21h-.22c-1.42,1.79-2.88,3.03-4.39,3.72-1.5,.69-3.46,1.04-5.88,1.04-2.97,0-5.31-.85-7.01-2.55-1.71-1.7-2.56-4.11-2.56-7.25s1.15-5.7,3.45-7.26c2.3-1.56,5.76-2.42,10.39-2.59l5.37-.17v-1.36c0-3.14-1.6-4.7-4.81-4.7-2.47,0-5.38,.75-8.72,2.24l-2.79-5.7c3.56-1.86,7.51-2.79,11.84-2.79s7.33,.9,9.55,2.71c2.21,1.81,3.32,4.56,3.32,8.25v20.62h-5.89Zm-2.49-14.33l-3.26,.11c-2.45,.07-4.28,.52-5.48,1.33-1.2,.81-1.8,2.05-1.8,3.71,0,2.38,1.37,3.57,4.1,3.57,1.96,0,3.52-.56,4.69-1.69,1.17-1.13,1.76-2.62,1.76-4.48v-2.55Z"/><path class="cls-3" d="M565.6,139.41h-8.44v-18.07c0-2.23-.4-3.91-1.19-5.02-.79-1.12-2.06-1.67-3.79-1.67-2.36,0-4.07,.79-5.12,2.37-1.05,1.58-1.58,4.19-1.58,7.84v14.56h-8.44v-30.94h6.45l1.13,3.96h.47c.94-1.49,2.24-2.62,3.89-3.39,1.65-.77,3.53-1.15,5.63-1.15,3.6,0,6.33,.97,8.19,2.92,1.86,1.95,2.79,4.76,2.79,8.43v20.17Z"/><path class="cls-3" d="M582.39,122.58l3.68-4.7,8.66-9.41h9.52l-12.29,13.42,13.03,17.52h-9.74l-8.91-12.54-3.62,2.91v9.63h-8.44v-43.06h8.44v19.2l-.44,7.03h.11Z"/></g></g><g><rect class="cls-1" x="205" y="158" width="100" height="8"/><rect class="cls-2" x="305" y="158" width="100" height="8"/><rect class="cls-4" x="405" y="158" width="100" height="8"/><rect class="cls-5" x="505" y="158" width="100" height="8"/></g></svg>