<?xml version="1.0" encoding="utf-8"?>
<!-- Generator: Adobe Illustrator 26.0.3, SVG Export Plug-In . SVG Version: 6.00 Build 0)  -->
<svg version="1.1" id="Layer_1" xmlns="http://www.w3.org/2000/svg" xmlns:xlink="http://www.w3.org/1999/xlink" x="0px" y="0px"
	 viewBox="0 0 64 64" style="enable-background:new 0 0 64 64;" xml:space="preserve">
<style type="text/css">
	.st0{fill:#09203E;}
	.st1{fill:#FFFFFF;}
	.st2{fill:#0278B4;}
	.st3{fill:#509E2F;}
	.st4{fill:#6884BE;}
	.st5{fill:#1DB5E9;}
	.st6{fill:#EBAB7C;}
	.st7{fill:#E27B72;}
	.st8{fill:#D0628D;}
	.st9{fill:#222021;}
	.st10{fill:#A3C398;}
	.st11{fill:#C2D5BD;}
	.st12{fill:#D7E0D4;}
	.st13{fill:#68C9F2;}
	.st14{fill:#AED9F2;}
	.st15{fill:#ECC2A0;}
	.st16{fill:#F1DAC7;}
	.st17{fill:#EC9F99;}
	.st18{fill:#EFC6C2;}
	.st19{fill:#DA8CAB;}
	.st20{fill:#E5BBCA;}
	.st21{fill:#5E6769;}
	.st22{fill:#9CA4AB;}
	.st23{opacity:0.7;fill:#0278B4;}
	.st24{fill:#E5E9EC;}
	.st25{fill:#9CC1DE;}
	.st26{fill:#8FA3CC;}
	.st27{fill:#BBC6DC;}
	.st28{fill:#EBEDEF;}
	.st29{fill:#F9CB6E;}
	.st30{fill:#F2BF48;}
</style>
<g>
	<path class="st5" d="M3.6,19.5c1,0.8,1.9,1.9,2.7,3.2c-0.7-1.5-1.5-2.8-2.4-3.8C3.8,19.1,3.7,19.3,3.6,19.5z"/>
	<path class="st5" d="M4.5,32.9c-1-0.9-2.2-1.6-3.4-2.1c0,0.2,0,0.4,0,0.7C2.3,31.7,3.4,32.2,4.5,32.9z"/>
	<path class="st5" d="M1,33.5c1.3,0.1,2.5,0.5,3.6,1.1c-1.1-0.8-2.3-1.4-3.6-1.7C1,33.1,1,33.3,1,33.5z"/>
	<path class="st5" d="M4.4,31.1c-1-1-2.1-1.9-3.3-2.4c0,0.2,0,0.4-0.1,0.7C2.3,29.8,3.4,30.4,4.4,31.1z"/>
	<path class="st5" d="M1.4,26.7c0,0.2-0.1,0.4-0.1,0.7c1.2,0.5,2.2,1.2,3.2,2C3.6,28.3,2.6,27.3,1.4,26.7z"/>
	<path class="st5" d="M4.6,46.6C4.7,46.8,4.8,47,5,47.2c1.6-1,2.7-1.8,3.6-2.6L4.6,46.6z"/>
	<path class="st5" d="M9.8,47.1C9,48,8.1,49,6.8,50c0.1,0.2,0.3,0.4,0.4,0.6C8.4,49.4,9.2,48.3,9.8,47.1z"/>
	<path class="st5" d="M8,51.7c0.1,0.2,0.3,0.4,0.4,0.5c1-1.2,1.6-2.5,2.1-3.7C9.9,49.5,9.2,50.6,8,51.7z"/>
	<path class="st5" d="M9.2,45.8c-0.9,0.7-2,1.6-3.5,2.5c0.1,0.2,0.2,0.4,0.4,0.6C7.4,47.8,8.4,46.8,9.2,45.8z"/>
	<path class="st5" d="M4.9,36.3c-1.1-0.7-2.4-1.2-3.8-1.4c0,0.2,0,0.5,0.1,0.7C2.6,35.6,3.8,35.9,4.9,36.3z"/>
	<path class="st5" d="M5.4,37.9c-1.2-0.5-2.5-0.9-4-1c0,0.2,0.1,0.5,0.1,0.7C3,37.5,4.2,37.6,5.4,37.9z"/>
	<path class="st5" d="M12.4,56c0.2,0.1,0.4,0.3,0.5,0.4c0.5-1.3,0.7-2.6,0.8-4C13.4,53.7,13.1,54.8,12.4,56z"/>
	<path class="st5" d="M2.9,42.8c0.1,0.2,0.2,0.4,0.3,0.7c1.7-0.6,3-1,4.1-1.3C6.1,42.2,4.7,42.4,2.9,42.8z"/>
	<path class="st5" d="M3.7,44.7c0.1,0.2,0.2,0.4,0.3,0.6l3.9-2C6.8,43.7,5.5,44.1,3.7,44.7z"/>
	<path class="st5" d="M9.4,53.2c0.2,0.2,0.3,0.3,0.5,0.5c0.9-1.3,1.3-2.5,1.6-3.8C11,51,10.3,52.1,9.4,53.2z"/>
	<path class="st5" d="M10.8,54.7c0.2,0.2,0.3,0.3,0.5,0.5c0.7-1.3,1-2.6,1.2-3.9C12.2,52.4,11.6,53.5,10.8,54.7z"/>
	<path class="st5" d="M2.3,40.9c0.1,0.2,0.1,0.4,0.2,0.7c1.6-0.4,2.9-0.6,4.1-0.7C5.4,40.7,4,40.6,2.3,40.9z"/>
	<path class="st5" d="M4.8,27.7c-0.9-1.2-1.9-2.3-3-3c-0.1,0.2-0.1,0.4-0.1,0.6C2.9,25.9,3.9,26.7,4.8,27.7z"/>
	<path class="st5" d="M7.1,21.2c-0.6-1.6-1.4-3.1-2.2-4.1c-0.1,0.2-0.2,0.4-0.3,0.6C5.5,18.5,6.3,19.8,7.1,21.2z"/>
	<path class="st5" d="M5.7,24.3c-0.8-1.4-1.6-2.6-2.6-3.5C3,21,2.9,21.2,2.9,21.4C3.8,22.1,4.8,23,5.7,24.3z"/>
	<path class="st5" d="M5.9,15.3c-0.1,0.2-0.2,0.4-0.3,0.5c0.9,1,1.7,2.4,2.4,4C7.4,18,6.7,16.4,5.9,15.3z"/>
	<path class="st5" d="M5.2,26c-0.8-1.3-1.7-2.5-2.8-3.3c-0.1,0.2-0.1,0.4-0.2,0.6C3.2,24,4.2,24.8,5.2,26z"/>
	<path class="st5" d="M6,39.4c-1.2-0.4-2.6-0.6-4.2-0.5c0.1,0.2,0.1,0.5,0.2,0.7C3.5,39.3,4.8,39.3,6,39.4z"/>
	<path class="st5" d="M55.3,46.8c1.2,0,2.4,0.1,3.6,0.5c0.1-0.2,0.2-0.4,0.3-0.6C58,46.5,56.6,46.6,55.3,46.8z"/>
	<path class="st5" d="M48.1,53.3c0.8,0.8,1.7,1.8,2.8,3.2c0.2-0.1,0.4-0.3,0.5-0.4C50.2,54.8,49.1,54,48.1,53.3z"/>
	<path class="st5" d="M43.4,56.4c0,1.3,0,2.6,0.5,4.3c0.2-0.1,0.4-0.2,0.6-0.3C43.9,58.8,43.6,57.5,43.4,56.4z"/>
	<path class="st5" d="M47.6,58.8c0.2-0.1,0.4-0.2,0.6-0.4l-2.4-3.7C46.2,55.9,46.7,57.2,47.6,58.8z"/>
	<path class="st5" d="M52.5,55.2c0.2-0.2,0.3-0.3,0.5-0.5c-1.3-1.1-2.5-1.7-3.7-2.2C50.3,53.2,51.4,54.1,52.5,55.2z"/>
	<path class="st5" d="M45.8,59.8c0.2-0.1,0.4-0.2,0.6-0.3c-0.8-1.6-1.3-2.8-1.7-3.9C44.8,56.8,45.1,58.1,45.8,59.8z"/>
	<path class="st5" d="M14.9,53.6c-0.1,1.2-0.4,2.4-0.9,3.6c0.2,0.1,0.4,0.3,0.6,0.4C15,56.4,15,55,14.9,53.6z"/>
	<path class="st5" d="M24.2,58.2c0.6,1.4,0.9,2.8,1,4.1c0.2,0,0.4,0.1,0.6,0.1C25.6,61.1,25,59.7,24.2,58.2z"/>
	<path class="st5" d="M54,53.8c0.2-0.2,0.3-0.3,0.5-0.5c-1.3-0.9-2.6-1.4-3.8-1.7C51.7,52.2,52.8,52.8,54,53.8z"/>
	<path class="st5" d="M54.3,48.2c1.2,0.1,2.4,0.4,3.6,0.9c0.1-0.2,0.2-0.4,0.4-0.6C56.9,48.1,55.6,48.1,54.3,48.2z"/>
	<path class="st5" d="M55.4,52.3c0.1-0.2,0.3-0.3,0.4-0.5c-1.3-0.7-2.6-1-3.9-1.2C53,51,54.2,51.5,55.4,52.3z"/>
	<path class="st5" d="M56.7,50.8c0.1-0.2,0.3-0.4,0.4-0.5c-1.3-0.5-2.6-0.7-3.9-0.7C54.3,49.7,55.5,50.1,56.7,50.8z"/>
	<path class="st5" d="M46.9,54.1l2.4,3.7c0.2-0.1,0.4-0.3,0.6-0.4C48.7,55.9,47.8,54.9,46.9,54.1z"/>
	<path class="st5" d="M19.3,56.4c0.2,1.3,0.3,2.7,0,3.9c0.2,0.1,0.4,0.2,0.6,0.3C20.1,59.3,19.8,57.9,19.3,56.4z"/>
	<path class="st5" d="M21.3,61.1c0.2,0.1,0.4,0.2,0.6,0.2c0-1.3-0.4-2.7-1-4.2C21.3,58.6,21.4,59.9,21.3,61.1z"/>
	<path class="st5" d="M55.4,39.3c-1.6-2.4-2.9-4.5-6.9-5c-0.1,0-0.1,0-0.2,0c-3.3-0.3-6.2-1.9-8.6-3.1c-2.2-1.2-4.2-2.2-5.4-1.7
		c0.9,0.9,1.7,3.1,2.9,6.4c1.2,3.3,2.5,7,4.2,9.6c0,0.1,0.1,0.1,0.1,0.2c0.9,1.4,2.1,2.1,3.8,2.1c1.6,0,3.5-0.5,5.4-1.1
		c2.9-0.9,6.1-1.8,9.1-1.1c0.2-0.3,0.3-0.6,0.5-1C57.9,43,56.6,41,55.4,39.3z"/>
	<path class="st5" d="M42.1,57.2c-0.2,1.3-0.3,2.6-0.1,4.2c0.2-0.1,0.4-0.2,0.7-0.2C42.2,59.6,42.1,58.3,42.1,57.2z"/>
	<path class="st5" d="M16.3,54.7c0,1.3-0.2,2.5-0.6,3.7c0.2,0.1,0.4,0.2,0.6,0.3C16.6,57.5,16.6,56.1,16.3,54.7z"/>
	<path class="st5" d="M17.8,55.6c0.1,1.3,0.1,2.6-0.3,3.8c0.2,0.1,0.4,0.2,0.6,0.3C18.3,58.4,18.1,57,17.8,55.6z"/>
	<path class="st5" d="M40.6,57.9c-0.4,1.2-0.7,2.6-0.6,4.1c0.2-0.1,0.4-0.1,0.7-0.2C40.4,60.3,40.5,59,40.6,57.9z"/>
	<path class="st5" d="M37.4,59c-0.7,1.2-1.2,2.4-1.4,3.8c0.2,0,0.4-0.1,0.7-0.1C36.7,61.3,37,60.1,37.4,59z"/>
	<path class="st5" d="M39,58.5c-0.5,1.2-0.9,2.5-1,3.9c0.2,0,0.4-0.1,0.7-0.1C38.6,60.9,38.8,59.6,39,58.5z"/>
	<path class="st5" d="M34.7,62.9c0.1-1.3,0.5-2.5,1-3.6c-0.8,1.1-1.4,2.3-1.7,3.6C34.2,62.9,34.4,62.9,34.7,62.9z"/>
	<path class="st5" d="M23.2,61.7c0.2,0.1,0.4,0.1,0.6,0.2c-0.1-1.3-0.6-2.7-1.3-4.2C23.1,59.2,23.3,60.6,23.2,61.7z"/>
	<path class="st5" d="M58.5,34.6c1.2,0.2,2.5,0.5,4.3,0.8c0-0.2,0-0.5,0.1-0.7C61.1,34.6,59.7,34.6,58.5,34.6z"/>
	<path class="st5" d="M58.4,36c1.1,0.5,2.4,1,4.1,1.5c0-0.2,0.1-0.5,0.1-0.7C60.9,36.5,59.6,36.2,58.4,36z"/>
	<path class="st5" d="M61,21.1c-0.1-0.2-0.2-0.4-0.3-0.6c-1.6,0.6-2.9,0.9-4,1.1C58,21.6,59.4,21.5,61,21.1z"/>
	<path class="st5" d="M55.3,23.8c-2.6-0.6-4.8-1.2-8.5,0.9c-2.9,1.6-5.4,1.9-7.5,2.2c-1.7,0.2-3,0.4-4.1,1.1c1.5,0.1,3.2,1,5.2,2
		c2.4,1.3,5.1,2.7,8.1,3c4.1,0.4,5.9-1.4,7.9-3.5c1.5-1.5,3.2-3.2,5.9-4.2c-0.1-0.3-0.1-0.6-0.2-0.9C59.2,24.8,57.2,24.3,55.3,23.8z
		"/>
	<path class="st5" d="M61.7,23c-0.1-0.2-0.1-0.4-0.2-0.7c-1.5,0.4-2.8,0.5-4,0.5C58.7,23.1,60.1,23.3,61.7,23z"/>
	<path class="st5" d="M58.7,33.3c1.2,0,2.5,0,4.3,0.1c0-0.2,0-0.5,0-0.7C61.2,32.8,59.9,33,58.7,33.3z"/>
	<path class="st5" d="M63,31.3c0-0.2,0-0.5,0-0.7c-1.7,0.3-3,0.7-4.1,1.2C60,31.6,61.3,31.4,63,31.3z"/>
	<path class="st5" d="M59.4,17.4c-0.1-0.2-0.2-0.4-0.3-0.6c-1.5,1-2.7,1.7-3.6,2.4C56.5,18.7,57.7,18.2,59.4,17.4z"/>
	<path class="st5" d="M62.1,39.4c0.1-0.2,0.1-0.4,0.2-0.7c-1.6-0.4-2.9-0.9-4-1.3C59.3,38.1,60.5,38.8,62.1,39.4z"/>
	<path class="st5" d="M59.1,28.8c1-0.6,2.2-1.1,3.6-1.5c0-0.2-0.1-0.5-0.1-0.7C61.1,27.2,60,27.9,59.1,28.8z"/>
	<path class="st5" d="M59,30.4c1.1-0.4,2.3-0.8,3.9-1.1c0-0.2,0-0.5-0.1-0.7C61.3,29,60.1,29.7,59,30.4z"/>
	<path class="st5" d="M13.6,14.9c1.6,1.7,2.9,3.1,6.3,6c0,0,0,0,0,0c0,0,0,0,0,0c1.5,1.3,3.2,2.1,4.8,2.7c-1.4-0.8-2.9-1.8-4.2-3.3
		c-3-3.3-4.4-4.6-6.2-6.1c-1.2-1-2.4-2.1-4.3-4c-0.2,0.2-0.4,0.4-0.5,0.5C11.4,12.5,12.6,13.8,13.6,14.9z"/>
	<path class="st5" d="M57.9,40.5c0.8,1,1.7,2,3,2.8c0.1-0.2,0.2-0.4,0.2-0.6C59.8,42,58.7,41.3,57.9,40.5z"/>
	<path class="st5" d="M58.1,38.9c0.9,0.9,1.9,1.7,3.4,2.5c0.1-0.2,0.1-0.4,0.2-0.7C60.3,40.2,59.1,39.5,58.1,38.9z"/>
	<path class="st5" d="M37.4,55.1c1.4-1.5,2.7-3,3.3-4.5c0.7-1.5,0.5-2.9-0.3-4.3c0-0.1-0.1-0.1-0.1-0.2c-1.7-2.7-3.1-6.5-4.3-9.8
		c-0.6-1.6-1.1-3.1-1.6-4.2c-0.5-1.2-0.9-1.6-1-1.7c0,0,0,0-0.1,0.1c-0.2,0.4-0.5,1-0.6,1.6c0,0,0,0,0,0.1c0,0,0,0,0,0c0,0,0,0,0,0
		c0,0,0,0,0,0c0,0,0,0,0,0c0,0,0,0,0,0c0,0,0,0,0,0c0,0,0,0,0,0c0,0,0,0,0,0c0,0,0,0,0,0c0,0,0,0,0,0c0,0,0,0,0,0c0,0,0,0,0,0
		c0,0,0,0,0,0c0,0,0,0,0,0c0,0,0,0,0,0c0,0,0,0,0,0c0,0,0,0,0,0c0,0,0,0-0.1,0c0,0,0,0,0,0c0,0,0,0-0.1,0c0,0,0,0,0,0c0,0,0,0,0,0
		c0,0,0,0,0,0c0,0,0,0,0,0c0,0,0,0,0,0c0,0,0,0,0,0c0,0,0,0,0,0c0,0,0,0-0.1,0c0,0,0,0,0,0c0,0-0.1,0-0.1,0c0,0,0,0-0.1,0
		c-0.3-0.1-0.4-0.3-0.4-0.6c0-0.1,0-0.1,0-0.2c0.1-0.4,0.2-0.9,0.3-1.2c0-0.3,0-0.5,0-0.6c-0.2,0-0.6,0.2-1.7,1
		c-1,0.7-2.2,1.7-3.6,2.8c-2.7,2.3-5.8,4.8-8.7,6.3c0,0-0.1,0-0.1,0.1c-0.6,0.3-0.9,0.7-1,1.2c-0.4,2.1,3.1,6.1,6.6,9.9
		c3.6,4,7.3,8.2,8.3,11.8c0.2,0,0.4,0,0.6,0c0.2,0,0.4,0,0.6,0C33.2,59.9,35.4,57.4,37.4,55.1z"/>
	<path class="st5" d="M54.8,18c0.9-0.7,2.1-1.4,3.6-2.3c-0.1-0.2-0.2-0.4-0.4-0.6C56.5,16.1,55.6,17.1,54.8,18z"/>
	<path class="st5" d="M30.9,5c0.6-1.1,1.1-2.4,1.3-4c-0.1,0-0.2,0-0.3,0c-0.1,0-0.3,0-0.4,0C31.5,2.6,31.3,3.9,30.9,5z"/>
	<path class="st5" d="M60.3,19.2c-0.1-0.2-0.2-0.4-0.3-0.6c-1.6,0.8-2.8,1.3-3.9,1.8C57.2,20.1,58.6,19.8,60.3,19.2z"/>
	<path class="st5" d="M41,18.2c-1.6,2.7-2.9,4.3-4,5.7c-0.9,1.1-1.6,2-2.1,2.8c1.2-0.7,2.6-0.9,4.2-1.1c2.1-0.3,4.4-0.6,7-2.1
		c3.7-2,4.4-4.2,5.3-6.7c0.6-1.8,1.3-3.8,3.2-6c-0.2-0.2-0.4-0.5-0.7-0.7c-2.2,1.8-4.2,2.4-6.1,3C45.3,13.9,43.1,14.6,41,18.2z"/>
	<path class="st5" d="M49.3,11.2c1.2-0.4,2.4-1,3.7-2c-0.2-0.2-0.3-0.3-0.5-0.5C51.3,9.8,50.3,10.6,49.3,11.2z"/>
	<path class="st5" d="M48,10.4c1.1-0.6,2.2-1.4,3.4-2.6c-0.2-0.1-0.4-0.3-0.5-0.4C49.8,8.7,48.9,9.7,48,10.4z"/>
	<path class="st5" d="M32.5,4.8c0.7-1,1.4-2.2,1.8-3.7c-0.2,0-0.5,0-0.7,0C33.4,2.5,33,3.7,32.5,4.8z"/>
	<path class="st5" d="M29.6,1.1c0.1,1.7,0,3-0.1,4.2c0.4-1.2,0.7-2.5,0.8-4.2C30,1.1,29.8,1.1,29.6,1.1z"/>
	<path class="st5" d="M56,12.3c-0.1-0.2-0.3-0.4-0.4-0.5c-1.1,1.2-1.7,2.4-2.2,3.6C54,14.4,54.8,13.4,56,12.3z"/>
	<path class="st5" d="M14.9,6.1c-0.2,0.1-0.4,0.3-0.6,0.4c1.1,0.9,2.2,1.5,3.5,1.9C16.8,7.8,15.8,7.1,14.9,6.1z"/>
	<path class="st5" d="M19.4,7.7c-1-0.7-1.9-1.5-2.7-2.6c-0.2,0.1-0.4,0.2-0.6,0.3C17.1,6.4,18.2,7.1,19.4,7.7z"/>
	<path class="st5" d="M54.1,16.7c0.8-0.8,1.8-1.7,3.1-2.8c-0.1-0.2-0.3-0.4-0.4-0.6C55.5,14.6,54.8,15.7,54.1,16.7z"/>
	<path class="st5" d="M24,6.4c-0.6-1-1.2-2.2-1.7-3.8c-0.2,0.1-0.4,0.1-0.7,0.2C22.4,4.3,23.2,5.4,24,6.4z"/>
	<path class="st5" d="M22.5,6.7c-0.7-0.9-1.5-2-2.2-3.4c-0.2,0.1-0.4,0.2-0.6,0.3C20.6,4.9,21.5,5.9,22.5,6.7z"/>
	<path class="st5" d="M21.5,19.3c2,2.2,4.3,3.4,6.4,4.3c1.5,0.7,3,1.4,4,2.5c-0.2-1.2-0.7-2.2-1.3-3.4c-0.8-1.6-1.8-3.6-2.4-6.8
		c0,0,0,0,0,0c-0.8-3.9-3.6-4.6-7.2-5.4c-2.6-0.6-5.4-1.2-7.6-3.3c-0.2,0.2-0.5,0.4-0.7,0.6c1.7,2.1,2.7,3.4,3.6,4.7
		C17.4,14.4,18.5,16.1,21.5,19.3z"/>
	<path class="st5" d="M29.4,29.6c0.7-0.5,1.5-0.9,2.1-1c-0.5-1.6-2.3-2.2-4.8-3c-2.3-0.7-5.2-1.7-7.7-3.8c0,0,0,0,0,0
		c-3.4-2.8-5-3.9-6.9-5.2c-1.3-0.8-2.7-1.8-4.8-3.4c-0.2,0.3-0.4,0.6-0.6,0.8c2.4,2.9,3.5,8.4,4.6,13.7c1,5,2.1,10.2,4.1,11.2
		c0.5,0.2,1,0.2,1.6-0.1c0,0,0.1,0,0.1-0.1c2.7-1.4,5.8-3.9,8.5-6.1C27,31.5,28.3,30.4,29.4,29.6z"/>
	<path class="st5" d="M27.6,58.6c0.9,1.5,1.5,2.9,1.8,4.3c0.2,0,0.4,0,0.6,0C29.5,61.6,28.7,60.1,27.6,58.6z"/>
	<path class="st5" d="M14.2,12.2c-0.7-1-1.5-2.1-2.7-3.5c-0.2,0.2-0.3,0.3-0.5,0.5C12.3,10.5,13.3,11.4,14.2,12.2z"/>
	<path class="st5" d="M8.6,11.7c-0.2,0.2-0.3,0.4-0.5,0.5c1.5,1.1,2.6,1.9,3.6,2.6C10.9,13.9,9.9,12.9,8.6,11.7z"/>
	<path class="st5" d="M25.4,6.1C25,5,24.7,3.7,24.2,2C24,2,23.8,2.1,23.5,2.2C24.2,3.9,24.8,5.1,25.4,6.1z"/>
	<path class="st5" d="M21,7.1c-0.9-0.8-1.7-1.7-2.5-3c-0.2,0.1-0.4,0.2-0.6,0.3C18.8,5.6,19.9,6.4,21,7.1z"/>
	<path class="st5" d="M46.3,4.5c-0.2-0.1-0.4-0.2-0.6-0.3c-0.7,1.7-1,3-1.3,4.2C44.9,7.3,45.5,6.1,46.3,4.5z"/>
	<path class="st5" d="M48.1,5.5c-0.2-0.1-0.4-0.2-0.6-0.4c-0.8,1.6-1.4,2.8-1.9,3.9C46.3,8.1,47.1,7,48.1,5.5z"/>
	<path class="st5" d="M25.9,58.5c0.7,1.4,1.2,2.8,1.4,4.2c0.2,0,0.4,0.1,0.6,0.1C27.6,61.4,26.8,60,25.9,58.5z"/>
	<path class="st5" d="M44.5,3.6c-0.2-0.1-0.4-0.2-0.6-0.3c-0.5,1.7-0.6,3-0.6,4.2C43.5,6.5,43.9,5.2,44.5,3.6z"/>
	<path class="st5" d="M49.8,6.6c-0.2-0.1-0.4-0.3-0.6-0.4c-1,1.5-1.8,2.6-2.5,3.5C47.7,8.9,48.7,8,49.8,6.6z"/>
	<path class="st5" d="M26.7,5.9c-0.1-1.2-0.3-2.5-0.5-4.3c-0.2,0-0.5,0.1-0.7,0.1C26,3.5,26.4,4.7,26.7,5.9z"/>
	<path class="st5" d="M41.9,6.8c0.1-1.2,0.2-2.4,0.7-4c-0.2-0.1-0.4-0.2-0.6-0.2C41.7,4.2,41.7,5.6,41.9,6.8z"/>
	<path class="st5" d="M36.3,1.3c-0.2,0-0.4-0.1-0.7-0.1c-0.3,1.4-0.9,2.5-1.5,3.5C35.1,3.7,35.8,2.6,36.3,1.3z"/>
	<path class="st5" d="M28.1,5.6c0.1-1.2,0.2-2.6,0.2-4.4c-0.2,0-0.5,0.1-0.7,0.1C27.8,3.1,27.9,4.4,28.1,5.6z"/>
	<path class="st5" d="M38.3,1.7c-0.2,0-0.4-0.1-0.7-0.1c-0.4,1.3-1.1,2.3-1.8,3.2C36.9,3.9,37.7,2.9,38.3,1.7z"/>
	<path class="st5" d="M33.9,8c-2.9,2.1-5.2,3.8-4.6,7.5c0,0.1,0,0.2,0,0.2c0.6,3,1.5,4.8,2.3,6.5c0.7,1.5,1.4,2.8,1.6,4.5
		c0.8-1.5,1.6-2.5,2.6-3.7c1.1-1.3,2.3-2.8,3.9-5.5C42,13.9,41.5,11.6,41,9c-0.4-1.9-0.8-4-0.3-6.8C40.3,2.1,40,2,39.7,2
		C38.4,4.7,36.1,6.4,33.9,8z"/>
</g>
</svg>
